<svg xmlns="http://www.w3.org/2000/svg" xmlns:xlink="http://www.w3.org/1999/xlink" version="1.1" x="0px" y="0px" viewBox="0 0 100 125" enable-background="new 0 0 100 100" xml:space="preserve"><g display="none"><rect x="-421.258" y="-733.241" display="inline" fill="#000000" width="1566.157" height="1272.127"/></g><g><path d="M34.925,48.175c-0.543,0.544-0.843,1.268-0.843,2.035c0,0.77,0.299,1.492,0.843,2.035L47.959,65.28   c0.27,0.271,0.588,0.484,0.935,0.626c0.353,0.147,0.725,0.223,1.105,0.223c0.379,0,0.751-0.075,1.094-0.218   c0.356-0.146,0.674-0.357,0.942-0.627l13.038-13.038c1.122-1.121,1.122-2.946,0.001-4.069l-0.001-0.002   c-1.122-1.121-2.948-1.12-4.069,0.001l-8.126,8.127V26.856c0-1.587-1.291-2.878-2.878-2.878c-1.587,0-2.878,1.291-2.878,2.878   v29.446l-8.126-8.128C37.873,47.052,36.047,47.055,34.925,48.175z"/><polygon points="83,55.935 77,55.935 77,70.022 23,70.022 23,56.816 17,56.816 17,76.022 83,76.022  "/></g></svg>